<svg xmlns="http://www.w3.org/2000/svg" version="1.1" xmlns:xlink="http://www.w3.org/1999/xlink" xmlns:svgjs="http://svgjs.com/svgjs" width="512" height="512" x="0" y="0" viewBox="0 0 24 24" style="enable-background:new 0 0 512 512" xml:space="preserve" class=""><g><path xmlns="http://www.w3.org/2000/svg" d="m12 1a11 11 0 1 0 11 11 11 11 0 0 0 -11-11zm0 20a9 9 0 0 1 -1-17.94v8.94a1.09 1.09 0 0 0 .08.39 1 1 0 0 0 .21.32l6.32 6.29a9 9 0 0 1 -5.61 2zm7-3.39-4.59-4.61h6.53a9 9 0 0 1 -1.94 4.61zm-6-6.61v-7.94a9 9 0 0 1 7.94 7.94z" fill="#b5bdc9" data-original="#000000" class=""></path></g></svg>