<svg xmlns="http://www.w3.org/2000/svg" version="1.1" xmlns:xlink="http://www.w3.org/1999/xlink" xmlns:svgjs="http://svgjs.com/svgjs" width="512" height="512" x="0" y="0" viewBox="0 0 64 64" style="enable-background:new 0 0 512 512" xml:space="preserve" class=""><g><g xmlns="http://www.w3.org/2000/svg"><path d="m43.2 37h-4c-.553 0-1-.447-1-1s.447-1 1-1h4c.553 0 1 .447 1 1s-.447 1-1 1z" fill="#000000" data-original="#000000" class=""></path></g><g xmlns="http://www.w3.org/2000/svg"><path d="m50 32c-.553 0-1-.447-1-1v-9c0-.553.447-1 1-1s1 .447 1 1v9c0 .553-.447 1-1 1z" fill="#000000" data-original="#000000" class=""></path></g><g xmlns="http://www.w3.org/2000/svg"><path d="m50 51c-.553 0-1-.447-1-1v-9c0-.553.447-1 1-1s1 .447 1 1v9c0 .553-.447 1-1 1z" fill="#000000" data-original="#000000" class=""></path></g><g xmlns="http://www.w3.org/2000/svg"><path d="m52 42c-.553 0-1-.447-1-1v-10c0-.553.447-1 1-1s1 .447 1 1v10c0 .553-.447 1-1 1z" fill="#000000" data-original="#000000" class=""></path></g><g xmlns="http://www.w3.org/2000/svg"><path d="m52 32h-12.8c-.553 0-1-.447-1-1s.447-1 1-1h12.8c.553 0 1 .447 1 1s-.447 1-1 1z" fill="#000000" data-original="#000000" class=""></path></g><g xmlns="http://www.w3.org/2000/svg"><path d="m52 42h-12.8c-.553 0-1-.447-1-1s.447-1 1-1h12.8c.553 0 1 .447 1 1s-.447 1-1 1z" fill="#000000" data-original="#000000" class=""></path></g><g xmlns="http://www.w3.org/2000/svg"><path d="m39.2 42c-3.252 0-6-2.748-6-6s2.748-6 6-6c.553 0 1 .447 1 1s-.447 1-1 1c-2.168 0-4 1.832-4 4s1.832 4 4 4c.553 0 1 .447 1 1s-.447 1-1 1z" fill="#000000" data-original="#000000" class=""></path></g><g xmlns="http://www.w3.org/2000/svg"><path d="m50 51h-34c-.553 0-1-.447-1-1s.447-1 1-1h34c.553 0 1 .447 1 1s-.447 1-1 1z" fill="#000000" data-original="#000000" class=""></path></g><g xmlns="http://www.w3.org/2000/svg"><path d="m50 23h-34c-.553 0-1-.447-1-1s.447-1 1-1h34c.553 0 1 .447 1 1s-.447 1-1 1z" fill="#000000" data-original="#000000" class=""></path></g><g xmlns="http://www.w3.org/2000/svg"><path d="m46 15h-30c-.553 0-1-.447-1-1s.447-1 1-1h30c.553 0 1 .447 1 1s-.447 1-1 1z" fill="#000000" data-original="#000000" class=""></path></g><g xmlns="http://www.w3.org/2000/svg"><path d="m46 23c-.553 0-1-.447-1-1v-8c0-.553.447-1 1-1s1 .447 1 1v8c0 .553-.447 1-1 1z" fill="#000000" data-original="#000000" class=""></path></g><g xmlns="http://www.w3.org/2000/svg"><path d="m16 23c-2.71 0-5-2.29-5-5s2.29-5 5-5c.553 0 1 .447 1 1s-.447 1-1 1c-1.626 0-3 1.374-3 3s1.374 3 3 3c.553 0 1 .447 1 1s-.447 1-1 1z" fill="#000000" data-original="#000000" class=""></path></g><g xmlns="http://www.w3.org/2000/svg"><path d="m12 47c-.553 0-1-.447-1-1v-28c0-.553.447-1 1-1s1 .447 1 1v28c0 .553-.447 1-1 1z" fill="#000000" data-original="#000000" class=""></path></g><g xmlns="http://www.w3.org/2000/svg"><path d="m16 51c-2.757 0-5-2.243-5-5 0-.553.447-1 1-1s1 .447 1 1c0 1.654 1.346 3 3 3 .553 0 1 .447 1 1s-.447 1-1 1z" fill="#000000" data-original="#000000" class=""></path></g></g></svg>