<svg xmlns="http://www.w3.org/2000/svg" version="1.1" xmlns:xlink="http://www.w3.org/1999/xlink" xmlns:svgjs="http://svgjs.com/svgjs" width="512" height="512" x="0" y="0" viewBox="0 0 64 64" style="enable-background:new 0 0 512 512" xml:space="preserve" class=""><g transform="matrix(1.32,0,0,1.32,-10.239993286132808,-10.080002441406243)"><g xmlns="http://www.w3.org/2000/svg" fill="rgb(0,0,0)"><path d="m52.56543 26.72852h-12.7998v-4.4209a.49972.49972 0 0 0 -.5-.5h-7.93063a.5.5 0 1 0 0 1h7.43067v3.9209h-24.87114a1.96045 1.96045 0 1 1 0-3.9209h5.41992a.5.5 0 0 0 0-1h-5.41992a2.95494 2.95494 0 0 0 -2.96 2.96045v25.73584a3.82933 3.82933 0 0 0 3.8252 3.82519h37.8057a.49971.49971 0 0 0 .5-.5v-26.60058a.49971.49971 0 0 0 -.5-.5zm-37.80566 26.60058a2.82866 2.82866 0 0 1 -2.8252-2.82519v-23.53455a2.93606 2.93606 0 0 0 1.96.75916h38.1709v7.90625h-7.90141a4.86426 4.86426 0 1 0 0 9.72851h7.90137v7.96582zm37.30566-8.96582h-7.90137a3.86426 3.86426 0 1 1 0-7.72851h7.90137z" fill="#b5bdc9" data-original="#000000" class=""></path><path d="m20.99414 15.31494h2.09375v9.6499a.49971.49971 0 0 0 .5.5h3.60742a.49971.49971 0 0 0 .5-.5v-9.6499h2.21a.50047.50047 0 0 0 .3877-.81592l-4.59672-5.64402a.51168.51168 0 0 0 -.39551-.18408.50385.50385 0 0 0 -.38965.1958q-2.1577 2.81836-4.31445 5.645a.49988.49988 0 0 0 .39746.80322zm4.32617-5.3374 3.53321 4.3374h-1.65821a.49972.49972 0 0 0 -.5.5v9.6499h-2.60742v-9.6499a.49971.49971 0 0 0 -.5-.5h-1.584q1.65823-2.17309 3.31642-4.3374z" fill="#b5bdc9" data-original="#000000" class=""></path><path d="m41.87793 40.499a2.30469 2.30469 0 1 0 2.30469-2.3042 2.30737 2.30737 0 0 0 -2.30469 2.3042zm2.30469-1.3042a1.30445 1.30445 0 1 1 -1.30469 1.3042 1.30565 1.30565 0 0 1 1.30469-1.30418z" fill="#b5bdc9" data-original="#000000" class=""></path></g></g></svg>