<svg xmlns="http://www.w3.org/2000/svg" version="1.1" xmlns:xlink="http://www.w3.org/1999/xlink" xmlns:svgjs="http://svgjs.com/svgjs" width="512" height="512" x="0" y="0" viewBox="0 0 128 128" style="enable-background:new 0 0 512 512" xml:space="preserve" class=""><circle r="64" cx="64" cy="64" fill="#b5bdc9" shape="circle"></circle><g transform="matrix(0.7,0,0,0.7,19.200000000000003,19.19999942779541)"><path xmlns="http://www.w3.org/2000/svg" d="M112.25,52.333h-3.015V37.859A10.487,10.487,0,0,0,98.76,27.384H24.475A10.487,10.487,0,0,0,14,37.859V90.141a10.487,10.487,0,0,0,10.475,10.475H98.76a10.487,10.487,0,0,0,10.475-10.475V75.667h3.015a1.751,1.751,0,0,0,1.75-1.75V54.083A1.751,1.751,0,0,0,112.25,52.333Zm-6.515,37.808a6.983,6.983,0,0,1-6.975,6.975H24.475A6.983,6.983,0,0,1,17.5,90.141V37.859a6.983,6.983,0,0,1,6.975-6.975H98.76a6.982,6.982,0,0,1,6.744,5.225H28a1.75,1.75,0,0,0,0,3.5h77.735V52.333H90.291a11.667,11.667,0,0,0,0,23.334h15.444ZM110.5,72.167H90.291a8.167,8.167,0,0,1,0-16.334H110.5Z" fill="#00186b" data-original="#000000" class=""></path><path xmlns="http://www.w3.org/2000/svg" d="M86.453,64a4.417,4.417,0,1,0,4.417-4.417A4.422,4.422,0,0,0,86.453,64Z" fill="#00186b" data-original="#000000" class=""></path></g></svg>