<svg xmlns="http://www.w3.org/2000/svg" version="1.1" xmlns:xlink="http://www.w3.org/1999/xlink" xmlns:svgjs="http://svgjs.com/svgjs" width="512" height="512" x="0" y="0" viewBox="0 0 512 512" style="enable-background:new 0 0 512 512" xml:space="preserve" class=""><g><path xmlns="http://www.w3.org/2000/svg" d="m415.5 128h-255.5c-17 0-18.8-20.6-4.4-24h259.9c3.7 0 7.5.2 11.2.7-5.1-36.1-38.6-61.2-74.6-56-1 .1-1.9.3-2.9.5l-252.9 43.1c-3.4.5-6.9 1.1-10.3 1.8h-.2c-1.3.2-2.5.5-3.8.8-38.7 9.3-50 44.1-50 65.1v24.2c-.3 2.6-.5 5.2-.5 7.8v192c0 35.3 28.7 64 64 64h320c35.3 0 64-28.7 64-64v-192c0-35.3-28.7-64-64-64zm-47.5 192c-17.7 0-32-14.3-32-32s14.3-32 32-32 32 14.3 32 32-14.3 32-32 32z" fill="#fdad15" data-original="#000000" class=""></path></g></svg>